#!OML:ASF E:\CV Data\Top Level 1\Subject 1\Session 1\player.ASF
:FULLY-SPECIFIED
:DEGREES
740
root -1.95542 17.49 -15.9306 -2.74571 13.7611 -11.0305
lowerback 7.2104 1.73173 7.33653
upperback 1.11817 2.98142 3.09064
thorax -2.6769 1.43219 -1.18056
lowerneck -9.21837 -10.6641 -14.8875
upperneck 15.3788 -13.9431 9.85437
head 8.02094 -6.76987 4.1207
rclavicle -2.59662e-015 -1.19271e-015
rhumerus -33.5486 38.676 -102.302
rradius 86.0773
rwrist -60.524
rhand -17.2921 -5.07353
rfingers 7.12502
rthumb 8.95351 -34.8635
lclavicle -2.59662e-015 -1.19271e-015
lhumerus -41.4702 -16.135 93.4446
lradius 99.8576
lwrist 35.3573
lhand -20.7868 26.8539
lfingers 7.12502
lthumb 5.58022 56.7604
rfemur -6.32136 7.39269 26.5604
rtibia 27.424
rfoot -18.267 -1.2154
rtoes -5.91102
lfemur -22.4554 2.73798 1.95297
ltibia 60.3427
lfoot -6.55911 7.51233
ltoes 0.956185
741
root -1.90171 17.4944 -16.0089 -2.56896 12.9556 -10.8437
lowerback 7.17826 1.79809 7.16647
upperback 1.04294 3.05743 3.0876
thorax -2.74051 1.46772 -1.0967
lowerneck -9.80801 -10.4293 -14.6322
upperneck 15.6099 -13.5232 9.4893
head 8.10066 -6.56643 3.9931
rclavicle -2.27608e-014 -1.33186e-014
rhumerus -33.4696 37.733 -101.691
rradius 86.1901
rwrist -60.919
rhand -16.4528 -4.86391
rfingers 7.12502
rthumb 9.76334 -34.6176
lclavicle -2.27608e-014 -1.33186e-014
lhumerus -41.1012 -16.7705 93.7075
lradius 100.203
lwrist 34.6523
lhand -20.403 26.8095
lfingers 7.12502
lthumb 5.95075 56.7059
rfemur -6.73398 7.76185 26.077
rtibia 27.4322
rfoot -18.0541 -0.725951
rtoes -6.09582
lfemur -21.375 2.24833 2.33502
ltibia 60.0583
lfoot -6.20927 7.23349
ltoes 0.705947
742
root -1.8456 17.4968 -16.0887 -2.42114 12.2201 -10.6693
lowerback 7.17568 1.83957 7.02367
upperback 0.963125 3.10572 3.08146
thorax -2.82605 1.48864 -1.03004
lowerneck -10.3547 -10.1913 -14.3746
upperneck 15.8215 -13.1061 9.12939
head 8.16991 -6.36665 3.86896
rclavicle -5.67282e-014 6.4605e-015
rhumerus -33.3827 36.7516 -101.074
rradius 86.2843
rwrist -61.3629
rhand -15.5645 -4.65684
rfingers 7.12502
rthumb 10.6202 -34.3685
lclavicle -5.67282e-014 6.4605e-015
lhumerus -40.7495 -17.3807 93.9669
lradius 100.562
lwrist 34.0246
lhand -19.9303 26.7478
lfingers 7.12502
lthumb 6.40711 56.6309
rfemur -7.14088 8.10097 25.5983
rtibia 27.4569
rfoot -17.8474 -0.284101
rtoes -6.30104
lfemur -20.2901 1.72105 2.66174
ltibia 59.7073
lfoot -5.87677 6.88654
ltoes 0.543812
743
root -1.78684 17.4974 -16.1698 -2.30757 11.5716 -10.5051
lowerback 7.20233 1.84653 6.90612
upperback 0.886298 3.11275 3.07571
thorax -2.92642 1.48862 -0.974504
lowerneck -10.8707 -9.95022 -14.1227
upperneck 16.0143 -12.689 8.77529
head 8.23131 -6.16902 3.74933
rclavicle -1.26725e-014 -2.87244e-014
rhumerus -33.2621 35.7454 -100.435
rradius 86.3602
rwrist -61.8803
rhand -14.5752 -4.56025
rfingers 7.12502
rthumb 11.5744 -34.2206
lclavicle -1.26725e-014 -2.87244e-014
lhumerus -40.4037 -17.9505 94.2232
lradius 100.928
lwrist 33.4852
lhand -19.3781 26.6497
lfingers 7.12502
lthumb 6.94015 56.5159
rfemur -7.53286 8.3869 25.1201
rtibia 27.4956
rfoot -17.6491 0.118318
rtoes -6.52589
lfemur -19.2052 1.12897 2.92661
ltibia 59.2858
lfoot -5.58416 6.46693
ltoes 0.482471
744
root -1.72495 17.4959 -16.2524 -2.23237 11.0314 -10.3565
lowerback 7.25177 1.8062 6.82263
upperback 0.825806 3.06087 3.07562
thorax -3.02485 1.45955 -0.92724
lowerneck -11.388 -9.70673 -13.8783
upperneck 16.1866 -12.2665 8.41991
head 8.2888 -5.9706 3.63146
rclavicle -3.44146e-015 4.91992e-014
rhumerus -33.087 34.7332 -99.7577
rradius 86.422
rwrist -62.4793
rhand -13.4641 -4.66468
rfingers 7.12502
rthumb 12.6458 -34.2619
lclavicle -3.44146e-015 4.91992e-014
lhumerus -40.0498 -18.4613 94.4684
lradius 101.304
lwrist 33.0384
lhand -18.7413 26.4963
lfingers 7.12502
lthumb 7.55486 56.3413
rfemur -7.90375 8.60888 24.646
rtibia 27.5489
rfoot -17.4593 0.473225
rtoes -6.7722
lfemur -18.1306 0.441423 3.13067
ltibia 58.7898
lfoot -5.3235 5.97639
ltoes 0.615352
745
root -1.66003 17.4922 -16.3363 -2.19587 10.5963 -10.2225
lowerback 7.32539 1.72439 6.77224
upperback 0.778793 2.95796 3.07799
thorax -3.12432 1.4051 -0.891554
lowerneck -11.8996 -9.46449 -13.6327
upperneck 16.3405 -11.8457 8.05909
head 8.34178 -5.77477 3.51191
rclavicle 5.07957e-014 -1.61016e-014
rhumerus -32.8561 33.6904 -99.0401
rradius 86.4779
rwrist -63.1393
rhand -12.3055 -4.79958
rfingers 7.12502
rthumb 13.7626 -34.3244
lclavicle 5.07957e-014 -1.61016e-014
lhumerus -39.6934 -18.9247 94.701
lradius 101.675
lwrist 32.6897
lhand -18.0234 26.293
lfingers 7.12502
lthumb 8.24772 56.1121
rfemur -8.25047 8.76651 24.1754
rtibia 27.6173
rfoot -17.28 0.788524
rtoes -7.03158
lfemur -17.0611 -0.344471 3.27318
ltibia 58.2092
lfoot -5.12112 5.42006
ltoes 0.898308
746
root -1.59255 17.4864 -16.4205 -2.18172 10.2337 -10.1039
lowerback 7.40484 1.61211 6.74066
upperback 0.748085 2.81587 3.08922
thorax -3.21188 1.33178 -0.852962
lowerneck -12.4355 -9.22637 -13.3911
upperneck 16.4952 -11.4251 7.68583
head 8.40183 -5.58103 3.38801
rclavicle -4.05645e-015 -1.82882e-014
rhumerus -32.5738 32.6414 -98.2796
rradius 86.5442
rwrist -63.8761
rhand -11.1272 -4.97249
rfingers 7.12502
rthumb 14.898 -34.4168
lclavicle -4.05645e-015 -1.82882e-014
lhumerus -39.325 -19.3264 94.9171
lradius 102.031
lwrist 32.4288
lhand -17.2742 26.0824
lfingers 7.12502
lthumb 8.97076 55.8716
rfemur -8.58767 8.88974 23.7119
rtibia 27.7023
rfoot -17.1106 1.06762
rtoes -7.31222
lfemur -15.9905 -1.19254 3.36076
ltibia 57.531
lfoot -4.97961 4.80851
ltoes 1.27709
747
root -1.52311 17.4785 -16.5046 -2.18307 9.91613 -10.0063
lowerback 7.47564 1.48717 6.72497
upperback 0.731744 2.65678 3.10823
thorax -3.28012 1.25077 -0.812428
lowerneck -12.977 -8.99306 -13.1417
upperneck 16.6371 -11.0104 7.30194
head 8.461 -5.39172 3.25867
rclavicle -3.24889e-015 -2.00276e-014
rhumerus -32.2565 31.5663 -97.4854
rradius 86.6197
rwrist -64.5834
rhand -9.91486 -5.15618
rfingers 7.12502
rthumb 16.0656 -34.5102
lclavicle -3.24889e-015 -2.00276e-014
lhumerus -38.9465 -19.6879 95.1151
lradius 102.367
lwrist 32.2696
lhand -16.5257 25.8757
lfingers 7.12502
lthumb 9.69296 55.6327
rfemur -8.92225 9.00184 23.265
rtibia 27.8051
rfoot -16.9506 1.3142
rtoes -7.60174
lfemur -14.9035 -2.06908 3.40844
ltibia 56.7393
lfoot -4.89994 4.13985
ltoes 1.67578
748
root -1.4518 17.4687 -16.5884 -2.18339 9.63286 -9.92195
lowerback 7.5345 1.36252 6.72294
upperback 0.707828 2.49846 3.1234
thorax -3.34859 1.16984 -0.782734
lowerneck -13.4808 -8.76564 -12.8719
upperneck 16.7703 -10.6118 6.90639
head 8.51335 -5.21213 3.12168
rclavicle 3.16192e-015 1.1281e-014
rhumerus -31.9491 30.4346 -96.6878
rradius 86.7126
rwrist -65.242
rhand -8.70162 -5.25643
rfingers 7.12502
rthumb 17.2336 -34.5123
lclavicle 3.16192e-015 1.1281e-014
lhumerus -38.591 -20.0331 95.3037
lradius 102.673
lwrist 32.2329
lhand -15.7084 25.6527
lfingers 7.12502
lthumb 10.4815 55.3714
rfemur -9.26911 9.10889 22.8256
rtibia 27.9274
rfoot -16.8028 1.53075
rtoes -7.92413
lfemur -13.8032 -2.96136 3.4098
ltibia 55.8209
lfoot -4.85766 3.41774
ltoes 2.05873
749
root -1.37911 17.4573 -16.6714 -2.16923 9.36364 -9.84895
lowerback 7.55549 1.24051 6.71097
upperback 0.689347 2.33928 3.1491
thorax -3.39094 1.08962 -0.734925
lowerneck -13.9823 -8.54094 -12.6006
upperneck 16.8941 -10.217 6.50271
head 8.56496 -5.03628 2.98155
rclavicle 4.91371e-015 -4.80065e-014
rhumerus -31.6348 29.2973 -95.8719
rradius 86.824
rwrist -65.8319
rhand -7.50116 -5.30278
rfingers 7.12502
rthumb 18.3888 -34.4536
lclavicle 4.91371e-015 -4.80065e-014
lhumerus -38.2179 -20.3336 95.4835
lradius 102.937
lwrist 32.3422
lhand -14.8268 25.4135
lfingers 7.12502
lthumb 11.3318 55.0873
rfemur -9.64249 9.22515 22.3928
rtibia 28.0687
rfoot -16.664 1.72
rtoes -8.27447
lfemur -12.6867 -3.84601 3.36908
ltibia 54.7609
lfoot -4.84 2.63614
ltoes 2.26999
750
root -1.30464 17.4441 -16.7544 -2.13328 9.12647 -9.78993
lowerback 7.54813 1.11418 6.69972
upperback 0.660332 2.17284 3.18441
thorax -3.42898 1.00585 -0.675945
lowerneck -14.4581 -8.31397 -12.3333
upperneck 17.002 -9.82196 6.09697
head 8.60967 -4.86253 2.84253
rclavicle -2.97245e-015 1.26477e-014
rhumerus -31.3471 28.1608 -95.0589
rradius 86.9586
rwrist -66.354
rhand -6.30658 -5.37084
rfingers 7.12502
rthumb 19.5376 -34.4092
lclavicle -2.97245e-015 1.26477e-014
lhumerus -37.8401 -20.5925 95.6603
lradius 103.157
lwrist 32.6154
lhand -13.9175 25.1499
lfingers 7.12502
lthumb 12.2086 54.7736
rfemur -10.0506 9.33374 21.9639
rtibia 28.2294
rfoot -16.5341 1.88223
rtoes -8.65201
lfemur -11.5749 -4.73762 3.28941
ltibia 53.5536
lfoot -4.83349 1.78214
ltoes 2.21342
751
root -1.22873 17.4298 -16.8369 -2.07095 8.90879 -9.73338
lowerback 7.48335 0.98349 6.66962
upperback 0.595835 1.99652 3.23427
thorax -3.47331 0.916877 -0.589291
lowerneck -14.7329 -8.06485 -12.1128
upperneck 17.0294 -9.4151 5.719
head 8.59718 -4.68835 2.729
rclavicle 4.86091e-015 -2.97742e-014
rhumerus -31.1671 27.0409 -94.2791
rradius 87.128
rwrist -66.8687
rhand -5.1162 -5.42477
rfingers 7.12502
rthumb 20.6818 -34.3428
lclavicle 4.86091e-015 -2.97742e-014
lhumerus -37.5238 -20.7846 95.8676
lradius 103.331
lwrist 33.0499
lhand -13.0266 24.8762
lfingers 7.12502
lthumb 13.0676 54.4469
rfemur -10.4948 9.44321 21.5277
rtibia 28.4085
rfoot -16.4158 2.02126
rtoes -9.05053
lfemur -10.4615 -5.62774 3.16058
ltibia 52.1906
lfoot -4.90234 0.90281
ltoes 1.50001
752
root -1.15066 17.4138 -16.9201 -1.99721 8.74966 -9.6821
lowerback 7.32526 0.830036 6.6486
upperback 0.5463 1.78104 3.2909
thorax -3.45125 0.81056 -0.494802
lowerneck -14.8638 -7.79889 -11.9352
upperneck 16.9424 -8.99962 5.38709
head 8.5267 -4.51067 2.64381
rclavicle -5.53957e-015 -1.24737e-014
rhumerus -30.9859 25.9487 -93.4926
rradius 87.3151
rwrist -67.3635
rhand -3.83944 -5.68293
rfingers 7.12502
rthumb 21.9081 -34.4625
lclavicle -5.53957e-015 -1.24737e-014
lhumerus -37.1824 -20.9253 96.0626
lradius 103.462
lwrist 33.6441
lhand -12.2085 24.6166
lfingers 7.12502
lthumb 13.856 54.135
rfemur -10.9604 9.52021 21.082
rtibia 28.6066
rfoot -16.3089 2.13541
rtoes -9.45296
lfemur -9.35898 -6.55698 2.98266
ltibia 50.6769
lfoot -5.08295 0.0511361
ltoes -0.0723782
